<mxfile host="65bd71144e">
    <diagram id="MdQ11BztZAXitx8CIa8p" name="Page-1">
        <mxGraphModel dx="889" dy="656" grid="1" gridSize="10" guides="1" tooltips="1" connect="1" arrows="1" fold="1" page="1" pageScale="1" pageWidth="850" pageHeight="1100" math="0" shadow="0">
            <root>
                <mxCell id="0"/>
                <mxCell id="1" parent="0"/>
                <mxCell id="2" value="Ver Sugerencias" style="shape=umlFrame;whiteSpace=wrap;html=1;width=120;height=30;boundedLbl=1;verticalAlign=middle;align=left;spacingLeft=5;fillColor=default;" vertex="1" parent="1">
                    <mxGeometry x="240" y="50" width="350" height="540" as="geometry"/>
                </mxCell>
                <mxCell id="3" style="edgeStyle=none;html=1;exitX=0.5;exitY=1;exitDx=0;exitDy=0;" edge="1" parent="1" source="4" target="7">
                    <mxGeometry relative="1" as="geometry">
                        <mxPoint x="385" y="129" as="targetPoint"/>
                    </mxGeometry>
                </mxCell>
                <mxCell id="4" value="session en la pagina como administrador" style="ellipse;strokeColor=none;fillColor=#000000;" vertex="1" parent="1">
                    <mxGeometry x="396" y="100" width="30" height="30" as="geometry"/>
                </mxCell>
                <mxCell id="5" value="ref" style="shape=umlFrame;whiteSpace=wrap;html=1;width=120;height=30;boundedLbl=1;verticalAlign=middle;align=left;spacingLeft=5;" vertex="1" parent="1">
                    <mxGeometry x="320" y="409.5" width="180" height="70" as="geometry"/>
                </mxCell>
                <mxCell id="6" value="visualizacion de datos&lt;br&gt;en vista" style="text;html=1;strokeColor=none;fillColor=none;align=center;verticalAlign=middle;whiteSpace=wrap;rounded=0;" vertex="1" parent="1">
                    <mxGeometry x="332" y="443" width="160" height="30" as="geometry"/>
                </mxCell>
                <mxCell id="7" value="ref" style="shape=umlFrame;whiteSpace=wrap;html=1;width=120;height=30;boundedLbl=1;verticalAlign=middle;align=left;spacingLeft=5;" vertex="1" parent="1">
                    <mxGeometry x="320" y="164" width="180" height="70" as="geometry"/>
                </mxCell>
                <mxCell id="8" value="controlador ver sugerencias" style="text;html=1;strokeColor=none;fillColor=none;align=center;verticalAlign=middle;whiteSpace=wrap;rounded=0;" vertex="1" parent="1">
                    <mxGeometry x="330" y="199" width="160" height="30" as="geometry"/>
                </mxCell>
                <mxCell id="11" value="ref" style="shape=umlFrame;whiteSpace=wrap;html=1;width=120;height=30;boundedLbl=1;verticalAlign=middle;align=left;spacingLeft=5;" vertex="1" parent="1">
                    <mxGeometry x="320" y="290" width="180" height="70" as="geometry"/>
                </mxCell>
                <mxCell id="12" value="get sugerencias&amp;nbsp;&lt;br&gt;base de datos" style="text;html=1;strokeColor=none;fillColor=none;align=center;verticalAlign=middle;whiteSpace=wrap;rounded=0;" vertex="1" parent="1">
                    <mxGeometry x="330" y="325" width="160" height="30" as="geometry"/>
                </mxCell>
                <mxCell id="23" value="" style="ellipse;html=1;shape=endState;strokeColor=#000000;fillColor=#040405;" vertex="1" parent="1">
                    <mxGeometry x="397" y="520" width="30" height="30" as="geometry"/>
                </mxCell>
                <mxCell id="24" value="" style="endArrow=classic;html=1;entryX=0.475;entryY=-0.057;entryDx=0;entryDy=0;entryPerimeter=0;exitX=0.506;exitY=1.052;exitDx=0;exitDy=0;exitPerimeter=0;" edge="1" parent="1" source="5" target="23">
                    <mxGeometry width="50" height="50" relative="1" as="geometry">
                        <mxPoint x="424.46000000000004" y="709.6500000000001" as="sourcePoint"/>
                        <mxPoint x="435" y="699" as="targetPoint"/>
                    </mxGeometry>
                </mxCell>
                <mxCell id="25" value="" style="endArrow=classic;html=1;exitX=0.521;exitY=1.02;exitDx=0;exitDy=0;exitPerimeter=0;entryX=0.522;entryY=0.014;entryDx=0;entryDy=0;entryPerimeter=0;" edge="1" parent="1" source="7" target="11">
                    <mxGeometry width="50" height="50" relative="1" as="geometry">
                        <mxPoint x="400" y="380" as="sourcePoint"/>
                        <mxPoint x="450" y="330" as="targetPoint"/>
                    </mxGeometry>
                </mxCell>
                <mxCell id="26" value="" style="endArrow=classic;html=1;exitX=0.506;exitY=1.045;exitDx=0;exitDy=0;exitPerimeter=0;entryX=0.506;entryY=0.005;entryDx=0;entryDy=0;entryPerimeter=0;" edge="1" parent="1" source="11" target="5">
                    <mxGeometry width="50" height="50" relative="1" as="geometry">
                        <mxPoint x="390" y="310" as="sourcePoint"/>
                        <mxPoint x="440" y="260" as="targetPoint"/>
                    </mxGeometry>
                </mxCell>
            </root>
        </mxGraphModel>
    </diagram>
</mxfile>